<?xml version="1.0" encoding="UTF-8"?>
<svg width="1000px" height="125px" viewBox="0 0 1000 125" version="1.1" xmlns="http://www.w3.org/2000/svg" xmlns:xlink="http://www.w3.org/1999/xlink">
    <!-- Generator: Sketch 55 (78076) - https://sketchapp.com -->
    <title>textura</title>
    <desc>Created with Sketch.</desc>
    <g id="Page-1" stroke="none" stroke-width="1" fill="none" fill-rule="evenodd">
        <g id="textura" transform="translate(0.000000, -0.000700)">
            <path d="M617,125.0004 L0,125.0004 L0,22.0004 L32.94,22.0004 L32.94,123.5934 L58.062,123.5934 L58.062,21.8524 L90,21.8524 L90,0.0004 L146,0.0004 C146.083,1.6524 146.239,3.3064 146.239,4.9584 C146.253,42.9234 146.308,80.8894 146.164,118.8534 C146.149,122.8294 147.309,123.9434 151.229,123.9154 C173.541,123.7494 195.854,123.8404 218.167,123.8224 C219.624,123.8214 221.082,123.6394 222.809,123.5214 L222.809,102.3144 L217.34,102.3144 C203.687,102.3134 190.032,102.3844 176.38,102.2134 C174.813,102.1934 171.95,100.8784 171.913,100.0634 C171.566,92.4994 171.708,84.9134 171.708,76.8134 L213.056,76.8134 L213.056,55.3014 L171.981,55.3014 L171.981,21.8944 L221,21.8944 L221,0.0004 L273,0.0004 C274.063,2.3104 274.835,4.8144 276.236,6.8974 C288.115,24.5574 300.024,42.1964 312.146,59.6884 C314.235,62.7044 314.086,64.7364 312.088,67.6274 C299.996,85.1304 288.076,102.7514 276.119,120.3474 C275.45,121.3314 274.969,122.4434 274.093,124.0644 C282.914,124.0644 290.904,124.2014 298.881,123.9414 C300.355,123.8944 302.207,122.5624 303.148,121.2824 C306.79,116.3314 310.113,111.1474 313.592,106.0774 C318.504,98.9194 323.449,91.7854 328.713,84.1584 C336.258,95.2204 343.626,105.2844 350.152,115.8684 C353.948,122.0244 358.159,125.2024 365.693,124.2174 C371.272,123.4874 377.023,124.0734 383.393,124.0734 C382.104,121.8824 381.5,120.7024 380.758,119.6154 C368.866,102.1734 357.022,84.6964 344.982,67.3564 C343.083,64.6214 342.87,62.8994 344.914,60.0154 C353.468,47.9384 361.733,35.6544 369.96,23.3514 C375.106,15.6564 379.996,7.7894 385,0.0004 L432,0.0004 L432,22.1424 L464.642,22.1424 L464.642,123.7094 L489.679,123.7094 L489.679,21.8394 L522,21.8394 L522,0.0004 L578,0.0004 C578.007,25.3284 577.686,50.6624 578.142,75.9824 C578.426,91.7614 583.608,106.0234 596.978,115.5004 C602.914,119.7074 610.282,121.8964 617,125.0004" id="Fill-1" fill="#FFFFFF"></path>
            <path d="M1000,124.0004 C998.5,124.3334 997,124.9574 995.5,124.9584 C924.333,125.0064 853.167,125.0004 782,125.0004 L641,125.00064 C642.216,124.5154 643.401,123.9264 644.651,123.5594 C665.903,117.3064 679.031,102.2824 679.853,80.3864 C680.832,54.2684 680.321,28.0934 680.432,1.9424 C680.435,1.2954 680.15,0.6474 680,0.0004 L746,0.0004 C745.958,40.6374 745.914,81.2724 745.897,121.9094 C745.896,122.5164 746.232,123.1214 746.395,123.6704 L770.909,123.6704 L770.909,88.0884 C771.851,88.3404 772.245,88.3234 772.431,88.5134 C780.354,96.5704 788.958,104.0874 795.972,112.8734 C803.379,122.1524 811.979,125.8044 823.527,124.1844 C828.28,123.5184 833.205,124.0734 838.052,124.0734 C838.19,123.6114 838.329,123.1484 838.468,122.6874 C826.164,110.2344 813.86,97.7834 801.544,85.3184 C803.584,84.6544 805.822,84.0364 807.978,83.2074 C824.579,76.8144 834.951,65.4794 836.521,47.1584 C838.014,29.7284 829.883,13.9484 814.324,6.4834 C807.704,3.3074 800.137,2.1024 793,0.0004 L930,0.0004 C917.316,31.9144 904.641,63.8324 891.944,95.7414 C888.283,104.9434 884.562,114.1214 880.562,124.0734 C884.418,124.0734 887.373,124.1204 890.326,124.0634 C895.792,123.9584 902.356,125.5854 906.392,123.1114 C909.914,120.9524 910.653,114.1714 912.492,109.3824 C913.484,106.7964 914.836,105.5234 917.939,105.5634 C932.919,105.7494 947.902,105.7304 962.883,105.5774 C965.947,105.5464 967.308,106.6884 968.185,109.4684 C969.381,113.2624 971.079,116.8954 972.383,120.6594 C973.269,123.2194 974.711,124.2254 977.531,124.1404 C985.016,123.9154 992.51,124.0234 1000,124.0004" id="Fill-4" fill="#FFFFFF"></path>
            <path d="M592.1265,9.7211 C591.3985,9.5851 590.6715,9.4491 589.9445,9.3131 C589.5755,10.9911 588.8915,12.6661 588.8845,14.3461 C588.8095,33.3441 588.7955,52.3431 588.8775,71.3421 C588.8925,74.8261 589.2785,78.3251 589.7085,81.7901 C594.0245,116.6101 628.8285,122.0201 649.3845,111.5241 C664.5585,103.7771 669.2455,89.6401 669.6665,73.9941 C670.2095,53.8441 669.8375,33.6671 669.7325,13.5031 C669.7255,12.1711 668.6375,10.8441 668.0515,9.5151 C667.4315,10.8101 666.2935,12.0971 666.2745,13.4011 C666.1265,23.7311 666.2035,34.0651 666.1885,44.3971 C666.1715,55.5631 666.5675,66.7501 665.9905,77.8881 C665.2205,92.7671 658.9365,104.8441 644.3675,110.2881 C629.7115,115.7661 615.4115,114.5341 603.3505,103.4361 C594.9815,95.7361 592.2225,85.4861 592.1615,74.4671 C592.0505,54.6361 592.1275,34.8041 592.1265,14.9721 C592.1265,13.2221 592.1265,11.4711 592.1265,9.7211 L592.1265,9.7211 Z" id="Path" fill="#000000"></path>
            <path d="M680.0005,0.0001 C680.1505,0.6481 680.4345,1.2951 680.4325,1.9431 C680.3215,28.0931 680.8315,54.2681 679.8525,80.3861 C679.0315,102.2831 665.9025,117.3061 644.6515,123.5591 C643.4015,123.9261 642.2155,124.5151 641.0005,125.0001 L617.0005,125.0001 C610.2825,121.8961 602.9145,119.7071 596.9785,115.5001 C583.6085,106.0241 578.4265,91.7611 578.1415,75.9831 C577.6855,50.6621 578.0075,25.3281 578.0005,0.0001 L603.0005,0.0001 C602.9815,24.1121 602.9145,48.2221 602.9955,72.3321 C603.0075,75.9681 603.4355,79.6571 604.1535,83.2241 C606.0735,92.7591 611.5375,99.7611 620.8955,102.5411 C630.2895,105.3331 639.3655,104.1611 646.8875,96.9771 C654.2515,89.9421 655.5445,80.7831 655.6015,71.3241 C655.7185,51.8661 655.6175,32.4061 655.6555,12.9471 C655.6645,8.6311 655.8795,4.3161 656.0005,0.0001 L680.0005,0.0001 Z" id="Path" fill="#000000"></path>
            <path d="M328.5269,60.2778 C327.4659,58.8658 326.4309,57.6078 325.5239,56.2628 C315.7599,41.7888 306.0539,27.2758 296.2119,12.8558 C295.2019,11.3768 293.4069,10.4318 291.9769,9.2398 C291.6019,9.6738 291.2269,10.1078 290.8509,10.5428 C301.7309,26.4148 312.4979,42.3658 323.5719,58.1018 C326.2549,61.9138 326.5189,64.6298 323.6689,68.5848 C314.7239,80.9968 306.2249,93.7308 297.5909,106.3678 C295.8079,108.9768 294.1909,111.7018 292.4969,114.3728 C292.9069,114.7238 293.3179,115.0758 293.7289,115.4278 C294.9159,114.3528 296.3659,113.4588 297.2509,112.1738 C304.1399,102.1738 310.9059,92.0898 317.7399,82.0508 C321.2349,76.9168 324.7929,71.8238 328.5879,66.3268 C329.9739,68.1678 330.9109,69.3078 331.7369,70.5248 C341.1649,84.4178 350.5469,98.3428 360.0409,112.1918 C360.9509,113.5198 362.5369,114.3848 363.8089,115.4658 C364.1469,115.1108 364.4839,114.7568 364.8209,114.4028 C364.3619,113.5608 363.9709,112.6728 363.4329,111.8848 C353.3949,97.1948 343.4199,82.4618 333.2239,67.8818 C331.0559,64.7808 330.5459,62.6098 333.0159,59.2328 C340.1769,49.4428 346.8939,39.3258 353.7219,29.2948 C358.0469,22.9408 362.2589,16.5098 366.7579,9.7608 C365.4849,9.5728 364.7089,9.2868 364.5829,9.4638 C352.5939,26.2928 340.6539,43.1558 328.5269,60.2778 L328.5269,60.2778 Z" id="Path" fill="#000000"></path>
            <path d="M384.9999,0.0008 C379.9959,7.7898 375.1059,15.6568 369.9609,23.3508 C361.7329,35.6548 353.4679,47.9388 344.9139,60.0148 C342.8699,62.8998 343.0829,64.6218 344.9819,67.3568 C357.0229,84.6968 368.8659,102.1738 380.7579,119.6158 C381.4999,120.7028 382.1039,121.8818 383.3929,124.0738 C377.0239,124.0738 371.2729,123.4878 365.6929,124.2168 C358.1589,125.2028 353.9479,122.0248 350.1519,115.8688 C343.6259,105.2848 336.2579,95.2198 328.7129,84.1588 C323.4489,91.7858 318.5039,98.9198 313.5919,106.0778 C310.1129,111.1478 306.7899,116.3318 303.1489,121.2828 C302.2069,122.5618 300.3559,123.8938 298.8809,123.9418 C290.9039,124.2018 282.9139,124.0648 274.0929,124.0648 C274.9689,122.4438 275.4499,121.3318 276.1189,120.3468 C288.0759,102.7518 299.9959,85.1308 312.0889,67.6278 C314.0859,64.7368 314.2349,62.7048 312.1459,59.6888 C300.0249,42.1968 288.1149,24.5568 276.2359,6.8978 C274.8359,4.8148 274.0639,2.3098 272.9999,0.0008 L299.9999,0.0008 C304.9349,7.5978 309.7979,15.2438 314.8259,22.7788 C319.2089,29.3468 323.7769,35.7918 328.6909,42.9108 C338.7709,28.1528 348.3849,14.0768 357.9999,0.0008 L384.9999,0.0008 Z" id="Path" fill="#000000"></path>
            <path d="M157.5786,114.3266 C158.7376,114.5206 159.3756,114.7206 160.0136,114.7216 C176.5056,114.7426 192.9986,114.7446 209.4916,114.7446 C210.1576,114.7446 210.9106,114.8886 211.4656,114.6286 C212.0956,114.3336 212.9506,113.6746 212.9686,113.1476 C212.9876,112.5986 212.2026,111.6526 211.6306,111.5306 C210.3496,111.2586 208.9836,111.3606 207.6526,111.3596 C193.8246,111.3526 179.9966,111.3646 166.1696,111.3436 C164.4136,111.3406 162.6576,111.1766 160.7836,111.0806 L160.7836,67.7506 L166.4746,67.7506 C177.4706,67.7506 188.4656,67.7916 199.4606,67.6976 C200.8546,67.6856 202.2436,66.9726 203.6346,66.5846 C203.5306,66.0066 203.4276,65.4286 203.3236,64.8506 L160.8656,64.8506 L160.8656,12.6446 L178.1476,12.6446 L195.6406,12.6446 C209.5546,12.6446 209.5546,12.6446 212.0296,10.2836 L157.5786,10.2836 L157.5786,114.3266 Z" id="Path" fill="#000000"></path>
            <path d="M220.9996,0.0006 L220.9996,21.8936 L171.9816,21.8936 L171.9816,55.3016 L213.0566,55.3016 L213.0566,76.8136 L171.7076,76.8136 C171.7076,84.9136 171.5656,92.4996 171.9126,100.0626 C171.9496,100.8786 174.8136,102.1936 176.3796,102.2136 C190.0316,102.3846 203.6866,102.3136 217.3406,102.3146 L222.8086,102.3146 L222.8086,123.5216 C221.0816,123.6396 219.6236,123.8216 218.1666,123.8226 C195.8536,123.8406 173.5406,123.7496 151.2286,123.9156 C147.3086,123.9436 146.1486,122.8296 146.1636,118.8526 C146.3076,80.8886 146.2526,42.9236 146.2396,4.9586 C146.2386,3.3056 146.0836,1.6526 145.9996,0.0006 L220.9996,0.0006 Z" id="Path" fill="#000000"></path>
            <path d="M656,0.0004 C655.88,4.3154 655.664,8.6314 655.656,12.9464 C655.617,32.4054 655.719,51.8654 655.601,71.3234 C655.544,80.7824 654.251,89.9414 646.887,96.9774 C639.366,104.1614 630.29,105.3334 620.896,102.5414 C611.538,99.7614 606.073,92.7594 604.154,83.2244 C603.436,79.6564 603.008,75.9684 602.996,72.3324 C602.914,48.2224 602.981,24.1114 603,0.0004 L656,0.0004 Z" id="Fill-15" fill="#FFFFFF"></path>
            <path d="M814.5957,115.6401 C815.1577,114.9651 815.7217,114.2891 816.2847,113.6151 C804.1887,102.1721 792.0917,90.7301 779.9957,79.2861 C780.3077,78.7731 780.6197,78.2581 780.9317,77.7441 C783.3547,77.7441 785.7807,77.8251 788.1997,77.7301 C799.3377,77.2961 809.7977,74.7821 817.4057,65.9561 C826.3537,55.5761 828.0217,43.5051 823.2577,30.8921 C818.3447,17.8851 807.8647,11.2821 794.5437,10.1611 C782.6277,9.1591 770.5797,9.7021 758.5907,9.6071 C757.9967,9.6021 757.4007,10.0181 756.7547,10.2571 C756.6657,11.5661 756.5207,12.7161 756.5197,13.8681 C756.5067,46.0201 756.5087,78.1721 756.5077,110.3251 C756.5077,110.8251 756.3647,111.3911 756.5497,111.8111 C757.0177,112.8761 757.6347,113.8761 758.1917,114.9031 C758.7707,113.9031 759.8127,112.9201 759.8507,111.9001 C760.0307,107.0761 759.9367,102.2411 759.9377,97.4101 C759.9397,90.9791 759.9387,84.5471 759.9387,78.2441 C768.6197,77.0281 775.6517,77.1901 781.7557,84.2581 C790.0977,93.9201 799.5617,102.6211 808.6687,111.6091 C810.3417,113.2591 812.6057,114.3111 814.5957,115.6401 L814.5957,115.6401 Z" id="Path" fill="#000000"></path>
            <path d="M792.9997,0.0001 C800.1367,2.1021 807.7037,3.3071 814.3247,6.4841 C829.8827,13.9491 838.0137,29.7281 836.5207,47.1591 C834.9507,65.4791 824.5787,76.8151 807.9777,83.2071 C805.8217,84.0361 803.5847,84.6551 801.5437,85.3191 C813.8607,97.7841 826.1637,110.2351 838.4677,122.6871 C838.3287,123.1491 838.1907,123.6121 838.0517,124.0741 C833.2047,124.0741 828.2807,123.5181 823.5277,124.1841 C811.9797,125.8041 803.3787,122.1531 795.9717,112.8731 C788.9587,104.0871 780.3537,96.5711 772.4307,88.5131 C772.2447,88.3241 771.8507,88.3401 770.9087,88.0881 L770.9087,123.6701 L746.3947,123.6701 C746.2327,123.1211 745.8967,122.5161 745.8967,121.9101 C745.9137,81.2731 745.9577,40.6371 745.9997,0.0001 L792.9997,0.0001 Z" id="Path" fill="#000000"></path>
            <path d="M895.7051,114.0727 C896.1911,114.5197 896.6791,114.9687 897.1661,115.4157 C898.1441,114.3457 899.4581,113.4317 900.0391,112.1777 C901.8511,108.2637 903.5791,104.2877 904.9661,100.2087 C905.9511,97.3087 907.6601,96.6277 910.5231,96.6427 C930.3301,96.7517 950.1401,96.7607 969.9461,96.6357 C973.0361,96.6167 974.8021,97.3787 975.7991,100.5087 C977.0571,104.4537 978.7351,108.2887 980.5301,112.0277 C981.1791,113.3807 982.6881,114.3197 983.8051,115.4487 C984.1881,115.1097 984.5711,114.7707 984.9551,114.4327 C984.5961,113.3817 984.2931,112.3067 983.8701,111.2827 C974.6881,89.0287 965.5081,66.7747 956.2971,44.5327 C951.9121,33.9467 947.5021,23.3717 942.9931,12.8387 C942.4831,11.6487 941.2501,10.7697 940.3521,9.7477 C939.4441,10.7997 938.4371,11.7847 937.6611,12.9267 C937.1131,13.7327 936.8821,14.7527 936.5011,15.6737 C928.6181,34.6887 920.7351,53.7037 912.8511,72.7187 C907.1371,86.5037 901.4211,100.2877 895.7051,114.0727 L895.7051,114.0727 Z" id="Path" fill="#000000"></path>
            <path d="M1000.0001,124.0007 C992.5101,124.0237 983.0622,124.2787 977.5311,124.1397 C972,124.0007 973.2681,123.2187 972.3831,120.6597 C971.0791,116.8947 969.3811,113.2617 968.1841,109.4687 C967.3081,106.6877 965.9471,105.5467 962.8831,105.5777 C947.9021,105.7307 932.9191,105.7497 917.9391,105.5627 C914.8361,105.5237 913.4841,106.7967 912.4921,109.3827 C911.2661,112.575367 909.232767,117.485033 906.3921,124.1117 C899.325433,124.0097 893.9701,123.9937 890.3261,124.0637 C887.3731,124.1207 884.4181,124.0737 880.5611,124.0737 C884.5611,114.1217 888.2831,104.9437 891.9441,95.7417 C904.6411,63.8327 917.3161,31.9147 930.0001,0.0007 L950.0001,0.0007 C950.3981,0.7227 950.8781,1.4137 951.1841,2.1737 C964.0411,34.0507 976.8511,65.9457 989.7441,97.8067 C993.0291,105.9257 996.5741,113.9387 1000.0001,122.0007 L1000.0001,124.0007 Z" id="Path" fill="#000000"></path>
            <path d="M43.645,12.7856 L43.645,19.0566 C43.645,49.0216 43.643,78.9876 43.65,108.9536 C43.651,110.4496 43.582,111.9716 43.84,113.4286 C43.943,114.0086 44.836,114.8186 45.395,114.8396 C45.902,114.8566 46.784,114.0116 46.897,113.4286 C47.148,112.1416 47.041,110.7806 47.041,109.4506 C47.046,79.1516 47.045,48.8526 47.045,18.5546 L47.045,12.6446 L58.935,12.6446 C62.764,12.6446 66.594,12.7146 70.421,12.6246 C73.84,12.5446 77.254,12.2896 80.67,12.1116 C80.645,11.5256 80.619,10.9406 80.593,10.3556 L10.176,10.3556 C10.145,11.0386 10.113,11.7226 10.082,12.4046 C21.039,13.0046 32.08,12.3616 43.645,12.7856 L43.645,12.7856 Z" id="Path" fill="#000000"></path>
            <polygon id="Path" fill="#000000" points="90 0.0006 90 21.8516 58.062 21.8516 58.062 123.5936 32.94 123.5936 32.94 22.0006 0 22.0006 0 0.0006"></polygon>
            <path d="M475.1909,12.187 L475.1909,19.041 C475.1909,49.006 475.1909,78.972 475.1919,108.939 C475.1929,110.27 475.0209,111.644 475.2989,112.917 C475.4639,113.671 476.3579,114.267 476.9229,114.933 C477.5329,114.318 478.5019,113.788 478.6739,113.067 C478.9769,111.803 478.8059,110.423 478.8069,109.092 C478.8099,78.959 478.8089,48.828 478.8089,18.695 L478.8089,12.644 C489.1189,12.644 498.5979,12.691 508.0759,12.592 C509.4839,12.578 510.8849,11.878 512.2899,11.496 C512.1689,11.149 512.0479,10.802 511.9279,10.457 L441.5049,10.457 C441.4859,11.034 441.4659,11.61 441.4469,12.187 L475.1909,12.187 Z" id="Path" fill="#000000"></path>
            <polygon id="Path" fill="#000000" points="521.9999 0 521.9999 21.839 489.6789 21.839 489.6789 123.709 464.6419 123.709 464.6419 22.142 431.9999 22.142 431.9999 0"></polygon>
            <path d="M1000,122.0004 C996.574,113.9384 993.029,105.9254 989.744,97.8074 C976.851,65.9454 964.041,34.0504 951.185,2.1734 C950.878,1.4134 950.398,0.7234 950,0.0004 L1000,0.0004 L1000,122.0004 Z" id="Fill-30" fill="#FFFFFF"></path>
            <path d="M358,0.0004 C348.385,14.0764 338.771,28.1524 328.691,42.9104 C323.777,35.7914 319.208,29.3474 314.826,22.7784 C309.798,15.2434 304.935,7.5984 300,0.0004 L358,0.0004 Z" id="Fill-33" fill="#FFFFFF"></path>
            <path d="M592.1265,9.7211 C592.1265,11.4711 592.1265,13.2221 592.1265,14.9721 C592.1275,34.8041 592.0505,54.6361 592.1615,74.4671 C592.2225,85.4861 594.9815,95.7361 603.3505,103.4361 C615.4115,114.5341 629.7115,115.7661 644.3675,110.2881 C658.9365,104.8441 665.2205,92.7671 665.9905,77.8881 C666.5675,66.7501 666.1715,55.5631 666.1885,44.3971 C666.2035,34.0651 666.1265,23.7311 666.2745,13.4011 C666.2935,12.0971 667.4315,10.8101 668.0515,9.5151 C668.6375,10.8441 669.7255,12.1711 669.7325,13.5031 C669.8375,33.6671 670.2095,53.8441 669.6665,73.9941 C669.2455,89.6401 664.5585,103.7771 649.3845,111.5241 C628.8285,122.0201 594.0245,116.6101 589.7085,81.7901 C589.2785,78.3251 588.8925,74.8261 588.8775,71.3421 C588.7955,52.3431 588.8095,33.3441 588.8845,14.3461 C588.8915,12.6661 589.5755,10.9911 589.9445,9.3131 C590.6715,9.4491 591.3985,9.5851 592.1265,9.7211" id="Fill-36" fill="#FFFFFF"></path>
            <path d="M328.5269,60.2778 C340.6539,43.1558 352.5939,26.2928 364.5829,9.4638 C364.7089,9.2868 365.4849,9.5728 366.7579,9.7608 C362.2589,16.5098 358.0469,22.9408 353.7219,29.2948 C346.8939,39.3258 340.1769,49.4428 333.0159,59.2328 C330.5459,62.6098 331.0559,64.7808 333.2239,67.8818 C343.4199,82.4618 353.3949,97.1948 363.4329,111.8848 C363.9709,112.6728 364.3619,113.5608 364.8209,114.4028 C364.4839,114.7568 364.1469,115.1108 363.8089,115.4658 C362.5369,114.3848 360.9509,113.5198 360.0409,112.1918 C350.5469,98.3428 341.1649,84.4178 331.7369,70.5248 C330.9109,69.3078 329.9739,68.1678 328.5879,66.3268 C324.7929,71.8238 321.2349,76.9168 317.7399,82.0508 C310.9059,92.0898 304.1399,102.1738 297.2509,112.1738 C296.3659,113.4588 294.9159,114.3528 293.7289,115.4278 C293.3179,115.0758 292.9069,114.7238 292.4969,114.3728 C294.1909,111.7018 295.8079,108.9768 297.5909,106.3678 C306.2249,93.7308 314.7239,80.9968 323.6689,68.5848 C326.5189,64.6298 326.2549,61.9138 323.5719,58.1018 C312.4979,42.3658 301.7309,26.4148 290.8509,10.5428 C291.2269,10.1078 291.6019,9.6738 291.9769,9.2398 C293.4069,10.4318 295.2019,11.3768 296.2119,12.8558 C306.0539,27.2758 315.7599,41.7888 325.5239,56.2628 C326.4309,57.6078 327.4659,58.8658 328.5269,60.2778" id="Fill-38" fill="#FFFFFF"></path>
            <path d="M157.5786,114.3266 L157.5786,10.2836 L212.0296,10.2836 C209.5546,12.6446 209.5546,12.6446 195.6406,12.6446 L178.1476,12.6446 L160.8656,12.6446 L160.8656,64.8506 L203.3236,64.8506 C203.4276,65.4286 203.5306,66.0066 203.6346,66.5846 C202.2436,66.9726 200.8546,67.6856 199.4606,67.6976 C188.4656,67.7916 177.4706,67.7506 166.4746,67.7506 L160.7836,67.7506 L160.7836,111.0806 C162.6576,111.1766 164.4136,111.3406 166.1696,111.3436 C179.9966,111.3646 193.8246,111.3526 207.6526,111.3596 C208.9836,111.3606 210.3496,111.2586 211.6306,111.5306 C212.2026,111.6526 212.9876,112.5986 212.9686,113.1476 C212.9506,113.6746 212.0956,114.3336 211.4656,114.6286 C210.9106,114.8886 210.1576,114.7446 209.4916,114.7446 C192.9986,114.7446 176.5056,114.7426 160.0136,114.7216 C159.3756,114.7206 158.7376,114.5206 157.5786,114.3266" id="Fill-40" fill="#FFFFFF"></path>
            <path d="M760.2471,75.6772 C773.6511,74.7932 786.8651,75.0122 799.6501,72.7812 C812.8871,70.4702 821.2681,59.3252 821.9941,46.7722 C822.8911,31.2812 816.4791,20.4042 802.8351,15.2502 C788.9891,10.0212 774.5811,13.2082 760.2471,12.2812 L760.2471,75.6772 Z" id="Path" fill="#FFFFFF"></path>
            <path d="M814.5961,115.6402 C812.6051,114.3112 810.3421,113.2592 808.6691,111.6092 C799.5621,102.6212 790.0981,93.9202 781.7551,84.2582 C775.6521,77.1902 768.6201,77.0282 759.9381,78.2442 C759.9381,84.5472 759.9391,90.9792 759.9381,97.4092 C759.9371,102.2402 760.0301,107.0752 759.8511,111.9002 C759.8131,112.9202 758.7711,113.9032 758.1911,114.9032 C757.6341,113.8762 757.0181,112.8762 756.5491,111.8112 C756.3651,111.3912 756.5081,110.8242 756.5081,110.3242 C756.5081,78.1722 756.5071,46.0202 756.5201,13.8672 C756.5201,12.7162 756.6661,11.5662 756.7551,10.2572 C757.4011,10.0182 757.9971,9.6022 758.5901,9.6072 C770.5801,9.7012 782.6271,9.1582 794.5441,10.1602 C807.8651,11.2812 818.3451,17.8852 823.2581,30.8922 C828.0211,43.5052 826.3531,55.5752 817.4051,65.9562 C809.7971,74.7812 799.3371,77.2962 788.1991,77.7302 C785.7801,77.8242 783.3551,77.7432 780.9321,77.7432 C780.6201,78.2582 780.3081,78.7732 779.9961,79.2862 C792.0921,90.7302 804.1881,102.1722 816.2851,113.6152 C815.7221,114.2892 815.1581,114.9652 814.5961,115.6402 L814.5961,115.6402 Z" id="Path" fill="#FFFFFF"></path>
            <path d="M972.7598,93.27 C961.9218,66.888 951.3908,41.254 940.3738,14.439 C929.2818,41.454 918.7458,67.117 908.0078,93.27 L972.7598,93.27 Z" id="Path" fill="#FFFFFF"></path>
            <path d="M895.7048,114.073 C901.4208,100.288 907.1368,86.503 912.8518,72.719 C920.7358,53.704 928.6178,34.689 936.5008,15.673 C936.8818,14.752 937.1138,13.733 937.6608,12.927 C938.4378,11.785 939.4448,10.799 940.3528,9.748 C941.2498,10.77 942.4838,11.649 942.9928,12.838 C947.5018,23.372 951.9118,33.947 956.2968,44.533 C965.5078,66.775 974.6888,89.029 983.8698,111.283 C984.2928,112.307 984.5958,113.381 984.9548,114.433 C984.5718,114.771 984.1888,115.11 983.8048,115.449 C982.6888,114.32 981.1788,113.38 980.5308,112.028 C978.7358,108.289 977.0568,104.454 975.7988,100.508 C974.8018,97.378 973.0358,96.617 969.9468,96.636 C950.1398,96.761 930.3298,96.751 910.5238,96.643 C907.6598,96.627 905.9508,97.309 904.9658,100.208 C903.5788,104.288 901.8518,108.264 900.0388,112.178 C899.4578,113.432 898.1448,114.346 897.1658,115.416 C896.6788,114.968 896.1918,114.52 895.7048,114.073 L895.7048,114.073 Z" id="Path" fill="#FFFFFF"></path>
            <path d="M43.645,12.7856 C32.08,12.3616 21.039,13.0046 10.082,12.4046 C10.113,11.7226 10.145,11.0386 10.176,10.3556 L80.593,10.3556 C80.619,10.9406 80.645,11.5256 80.67,12.1116 C77.254,12.2896 73.84,12.5446 70.421,12.6246 C66.594,12.7146 62.764,12.6446 58.935,12.6446 L47.045,12.6446 L47.045,18.5546 C47.045,48.8526 47.046,79.1516 47.041,109.4506 C47.041,110.7806 47.148,112.1416 46.897,113.4286 C46.784,114.0116 45.902,114.8566 45.395,114.8396 C44.836,114.8186 43.943,114.0086 43.84,113.4286 C43.582,111.9716 43.651,110.4496 43.65,108.9536 C43.643,78.9876 43.645,49.0216 43.645,19.0566 L43.645,12.7856 Z" id="Fill-46" fill="#FFFFFF"></path>
            <path d="M475.1909,12.187 L441.4469,12.187 C441.4659,11.61 441.4859,11.034 441.5049,10.457 L511.9279,10.457 C512.0479,10.802 512.1689,11.149 512.2899,11.496 C510.8849,11.878 509.4839,12.578 508.0759,12.592 C498.5979,12.691 489.1189,12.644 478.8089,12.644 L478.8089,18.695 C478.8089,48.828 478.8099,78.959 478.8069,109.092 C478.8059,110.423 478.9769,111.803 478.6739,113.067 C478.5019,113.788 477.5329,114.318 476.9229,114.933 C476.3579,114.267 475.4639,113.671 475.2989,112.917 C475.0209,111.644 475.1929,110.27 475.1919,108.939 C475.1909,78.972 475.1909,49.006 475.1909,19.041 L475.1909,12.187 Z" id="Fill-48" fill="#FFFFFF"></path>
            <path d="M760.2474,75.6776 L760.2474,12.2816 C774.5814,13.2086 788.9884,10.0206 802.8354,15.2506 C816.4794,20.4036 822.8904,31.2816 821.9944,46.7716 C821.2674,59.3256 812.8864,70.4706 799.6504,72.7806 C786.8644,75.0126 773.6514,74.7936 760.2474,75.6776 Z M770.9854,67.6206 C779.7414,66.7556 787.9154,66.6196 795.7814,64.9936 C804.9704,63.0946 810.4514,55.8076 811.0104,46.9166 C811.7384,35.3506 807.6914,27.5406 798.5244,23.7176 C789.6114,20.0006 780.3044,22.1256 770.9854,21.7286 L770.9854,67.6206 Z" id="Combined-Shape" fill="#000000"></path>
            <path d="M972.7594,93.2701 L908.0074,93.2701 C918.7464,67.1171 929.2824,41.4531 940.3744,14.4391 C951.3904,41.2541 961.9224,66.8881 972.7594,93.2701 Z M922.2764,84.0141 L958.4644,84.0141 C952.4804,68.3621 946.6754,53.1811 940.3694,36.6871 C934.0204,53.2931 928.2354,68.4271 922.2764,84.0141 Z" id="Path-2" fill="#000000"></path>
        </g>
    </g>
</svg>